<svg data-v-fde0c5aa="" xmlns="http://www.w3.org/2000/svg" viewBox="0 0 300 300" class="font"><!----><defs data-v-fde0c5aa=""><!----></defs><rect data-v-fde0c5aa="" fill="#FFFFFF" x="0" y="0" width="300px" height="300px" class="logo-background-square"></rect><defs data-v-fde0c5aa=""><linearGradient data-v-fde0c5aa="" gradientTransform="rotate(25)" id="1d953534-c6d4-4dc6-af80-21920f42da09" x1="0%" y1="0%" x2="100%" y2="0%"><stop data-v-fde0c5aa="" offset="0%" stop-color="#FFD000" stop-opacity="1"></stop><stop data-v-fde0c5aa="" offset="100%" stop-color="#B0B0B0" stop-opacity="1"></stop></linearGradient></defs><g data-v-fde0c5aa="" id="8d7299ce-2ced-4505-8f28-321f577c2d29" fill="url(#1d953534-c6d4-4dc6-af80-21920f42da09)" transform="matrix(4.917489051818848,0,0,4.917489051818848,33.79551209290141,88.31048633545795)"><path d="M8.81 10.04L8.81 10.04Q9.79 10.04 10.29 10.34L10.29 10.34L10.29 10.34Q10.79 10.64 10.79 11.23L10.79 11.23L10.79 17.18L9.39 17.18L9.39 11.19L7.91 11.19L7.91 11.19Q7.29 11.19 7.04 11.31L7.04 11.31L7.04 11.31Q6.79 11.44 6.73 11.77L6.73 11.77L6.73 17.18L5.33 17.18L5.33 11.19L3.85 11.19L3.85 11.19Q3.16 11.19 2.91 11.35L2.91 11.35L2.91 11.35Q2.66 11.52 2.66 12.00L2.66 12.00L2.66 17.18L1.26 17.18L1.26 10.18L1.90 10.18L2.28 10.88L2.28 10.88Q2.79 10.44 3.38 10.24L3.38 10.24L3.38 10.24Q3.98 10.04 4.75 10.04L4.75 10.04L4.75 10.04Q6.19 10.04 6.59 10.68L6.59 10.68L6.59 10.68Q7.50 10.04 8.81 10.04L8.81 10.04ZM15.86 17.32L15.86 17.32Q14.60 17.32 13.96 17.02L13.96 17.02L13.96 17.02Q13.33 16.72 13.08 15.95L13.08 15.95L13.08 15.95Q12.82 15.18 12.82 13.68L12.82 13.68L12.82 13.68Q12.82 12.18 13.08 11.41L13.08 11.41L13.08 11.41Q13.33 10.64 13.96 10.34L13.96 10.34L13.96 10.34Q14.60 10.04 15.86 10.04L15.86 10.04L15.86 10.04Q17.14 10.04 17.77 10.34L17.77 10.34L17.77 10.34Q18.40 10.64 18.65 11.40L18.65 11.40L18.65 11.40Q18.90 12.17 18.90 13.68L18.90 13.68L18.90 13.68Q18.90 15.18 18.65 15.95L18.65 15.95L18.65 15.95Q18.40 16.72 17.76 17.02L17.76 17.02L17.76 17.02Q17.12 17.32 15.86 17.32L15.86 17.32ZM14.28 16.17L16.77 16.17L16.77 16.17Q17.18 16.17 17.31 16.10L17.31 16.10L17.31 16.10Q17.44 16.03 17.44 15.82L17.44 15.82L17.44 11.19L14.95 11.19L14.95 11.19Q14.55 11.19 14.41 11.26L14.41 11.26L14.41 11.26Q14.28 11.33 14.28 11.54L14.28 11.54L14.28 16.17ZM25.05 7.87L26.45 7.70L26.45 17.18L25.80 17.18L25.49 16.62L25.49 16.62Q25.21 17.05 24.69 17.22L24.69 17.22L24.69 17.22Q24.16 17.39 23.24 17.39L23.24 17.39L23.24 17.39Q22.12 17.39 21.57 17.09L21.57 17.09L21.57 17.09Q21.01 16.80 20.80 16.03L20.80 16.03L20.80 16.03Q20.58 15.26 20.58 13.68L20.58 13.68L20.58 13.68Q20.58 12.19 20.79 11.42L20.79 11.42L20.79 11.42Q21.00 10.65 21.52 10.35L21.52 10.35L21.52 10.35Q22.04 10.04 23.04 10.04L23.04 10.04L23.04 10.04Q23.76 10.04 24.24 10.12L24.24 10.12L24.24 10.12Q24.72 10.19 25.05 10.37L25.05 10.37L25.05 7.87ZM25.05 15.89L25.05 11.19L22.69 11.19L22.69 11.19Q22.32 11.19 22.18 11.26L22.18 11.26L22.18 11.26Q22.05 11.33 22.05 11.54L22.05 11.54L22.05 16.24L24.40 16.24L24.40 16.24Q24.78 16.24 24.91 16.17L24.91 16.17L24.91 16.17Q25.05 16.10 25.05 15.89L25.05 15.89ZM34.51 10.18L34.51 17.18L33.87 17.18L33.49 16.48L33.49 16.48Q32.93 16.91 32.26 17.12L32.26 17.12L32.26 17.12Q31.60 17.32 30.74 17.32L30.74 17.32L30.74 17.32Q29.79 17.32 29.34 16.96L29.34 16.96L29.34 16.96Q28.90 16.60 28.90 15.85L28.90 15.85L28.90 10.18L30.30 10.18L30.30 16.24L31.92 16.24L31.92 16.24Q32.61 16.24 32.86 16.07L32.86 16.07L32.86 16.07Q33.11 15.90 33.11 15.43L33.11 15.43L33.11 10.18L34.51 10.18ZM38.36 16.14L38.36 16.14Q38.64 16.18 39.00 16.21L39.00 16.21L38.92 17.16L38.92 17.16Q38.40 17.32 38.00 17.32L38.00 17.32L38.00 17.32Q37.46 17.32 37.21 17.06L37.21 17.06L37.21 17.06Q36.96 16.80 36.96 16.27L36.96 16.27L36.96 8.08L38.36 7.87L38.36 16.14ZM43.43 10.04L43.43 10.04Q44.39 10.04 44.95 10.23L44.95 10.23L44.95 10.23Q45.51 10.42 45.76 10.84L45.76 10.84L45.76 10.84Q46.00 11.27 46.00 12.00L46.00 12.00L46.00 17.18L45.36 17.18L44.98 16.48L44.98 16.48Q44.48 16.91 43.87 17.12L43.87 17.12L43.87 17.12Q43.26 17.32 42.48 17.32L42.48 17.32L42.48 17.32Q41.31 17.32 40.82 16.84L40.82 16.84L40.82 16.84Q40.33 16.35 40.33 15.22L40.33 15.22L40.33 15.22Q40.33 14.20 40.61 13.75L40.61 13.75L40.61 13.75Q40.89 13.30 41.71 13.15L41.71 13.15L41.71 13.15Q42.53 12.99 44.39 12.99L44.39 12.99L44.60 12.99L44.60 11.30L44.60 11.30Q44.09 11.14 43.19 11.14L43.19 11.14L43.19 11.14Q42.07 11.14 40.82 11.48L40.82 11.48L40.64 10.46L40.64 10.46Q41.16 10.28 41.93 10.16L41.93 10.16L41.93 10.16Q42.70 10.04 43.43 10.04L43.43 10.04ZM43.48 16.24L43.48 16.24Q44.14 16.24 44.37 16.07L44.37 16.07L44.37 16.07Q44.60 15.90 44.60 15.43L44.60 15.43L44.60 13.90L42.74 13.90L42.74 13.90Q42.08 13.90 41.85 14.07L41.85 14.07L41.85 14.07Q41.61 14.24 41.61 14.71L41.61 14.71L41.61 16.24L43.48 16.24Z"></path></g><!----><!----></svg>